<svg xmlns="http://www.w3.org/2000/svg" width="142" height="89" viewBox="0 0 142 89">
    <g fill="none" fill-rule="evenodd">
        <g fill="#006a4d">
            <g>
                <path d="M52.468 70.267l-4.675 9.366L52.468 89h-4.675l-4.669-9.362v-.01l4.669-9.361h4.675zm-9.344 0v9.36l-.002.006.002.005V89H38.45V70.267h4.675zm24.036 0c.644 0 1.193.232 1.641.694.461.461.693 1.013.693 1.646V89h-4.67v-7.027H60.15V89h-4.673V72.607c0-.647.227-1.194.678-1.646.459-.462 1.016-.694 1.659-.694h9.346zm17.023 0c.647 0 1.198.232 1.644.694.461.461.697 1.013.697 1.646v7.026c0 .656-.236 1.213-.697 1.665-.463.453-1.006.675-1.644.675h-1.165L86.524 89H81.85l-3.501-7.027h-1.172V89h-4.67V70.267h11.677zm19.368 0v4.68h-4.675V89h-4.67V74.946h-4.673v-4.68h14.018zm-38.728 4.68H60.15v2.344h4.673v-2.345zm17.026 0h-4.675v2.344h4.675v-2.345zM19.173 41.33v6.401H6.39v3.204h9.59c.876 0 1.63.315 2.241.955.631.632.952 1.383.952 2.247v9.61c0 .903-.321 1.663-.952 2.277-.633.62-1.38.926-2.242.926H0v-6.406h12.78v-3.202H3.2c-.9 0-1.659-.308-2.273-.924C.31 55.783 0 55.025 0 54.138v-9.609c0-.883.31-1.632.926-2.252.628-.635 1.387-.947 2.273-.947h15.974zm46.571 0v6.401H52.966v12.813h6.39v-9.609h6.388V66.95H49.767c-.9 0-1.653-.306-2.27-.926-.614-.632-.923-1.393-.923-2.276V44.529c0-.883.309-1.632.923-2.252.633-.635 1.39-.947 2.27-.947h15.977zm10.508 0v19.214h12.78v6.406h-19.17V41.33h6.39zm48.172 0l4.793 9.605 4.793-9.605H142v25.62h-6.393V50.936l-6.39 12.812-6.391-12.812V66.95h-6.39V41.33h7.988zm-85.16-.002c.879 0 1.63.315 2.244.948.631.634.95 1.388.95 2.254V66.95h-6.39v-9.606h-6.39v9.606H23.29V44.53c0-.883.307-1.634.92-2.254.634-.633 1.39-.948 2.271-.948h12.783zm69.864 0c.876 0 1.627.315 2.242.948.633.634.952 1.388.952 2.254V66.95h-6.393v-9.606h-6.39v9.606h-6.39V44.53c0-.883.309-1.634.923-2.254.63-.633 1.39-.948 2.275-.948h12.78zm-73.06 6.402h-6.39v3.207h6.39V47.73zm69.861 0h-6.39v3.207h6.39V47.73zM56.7 35.016c1.221 0 2.214.992 2.214 2.223 0 1.227-.993 2.22-2.214 2.22-1.228 0-2.22-.993-2.22-2.22 0-1.231.992-2.223 2.22-2.223zm29.227-5.42l.333.32.325.336.318.348.314.358.617.742 4.255 5.276-32.082.01 14.616-7.542c5.902-3.047 8.944-2.042 11.304.151zm-47.157-.15l14.62 7.539-32.086-.01 4.407-5.463.465-.553.314-.358.318-.348.326-.336.165-.162.338-.313c2.339-2.085 5.374-2.972 11.133.005zm5.93-12.624L54.779 34.94l-17.01-10.916c-1.811-1.16-3.798-2.115-6.288-2.115l-5.691-.02 11.332-6.82c2.925-1.761 6.27-.587 7.579 1.753zm31.576-1.752l11.33 6.818-5.676.021c-2.505 0-4.496.955-6.3 2.115L58.615 34.94l10.08-18.118c1.305-2.34 4.65-3.514 7.58-1.752zM56.693 0l6.958 9.14c.846 1.118.732 2.258.322 3.577l-.637 1.91-6.647 19.36-6.824-19.92-.36-1.084c-.47-1.433-.662-2.65.245-3.844L56.693 0z" transform="translate(-48 -24) translate(48 24)"/>
            </g>
        </g>
    </g>
</svg>
